name analog
datacolumns 19
datarows 51
range 0.1835 0.2085
endheader
time	ground_force_vx	ground_force_vy	ground_force_vz	ground_force_px	ground_force_py	ground_force_pz	l_ground_force_vx	l_ground_force_vy	l_ground_force_vz	l_ground_force_px	l_ground_force_py	l_ground_force_pz	ground_torque_x	ground_torque_y	ground_torque_z	l_ground_torque_x	l_ground_torque_y	l_ground_torque_z
0.1835	-0.0	-0.0	-0.0	8.335431098937988	37.677005767822266	-358.9305114746094	-2.369788408279419	-32.51496505737305	-413.1460876464844	-0.0	-0.0	-0.0	-0.0	-0.0	-0.0	123157.828125	-12757.5322265625	-3527.245361328125
0.184	-0.0	-0.0	-0.0	8.31043529510498	38.17290878295898	-358.62164306640625	-2.369915008544922	-32.51520919799805	-413.4443054199219	-0.0	-0.0	-0.0	-0.0	-0.0	-0.0	122922.1953125	-12716.0244140625	-3510.30078125
0.1845	-0.0	-0.0	-0.0	8.003901481628418	38.1869010925293	-358.05645751953125	-2.4839019775390625	-32.7171630859375	-413.14556884765625	-0.0	-0.0	-0.0	-0.0	-0.0	-0.0	122829.5703125	-12514.9736328125	-3650.325439453125
0.185	-0.0	-0.0	-0.0	7.66865348815918	37.76631927490234	-360.6393432617188	-2.991011619567871	-32.67902374267578	-413.79681396484375	-0.0	-0.0	-0.0	-0.0	-0.0	-0.0	123139.3203125	-12292.9482421875	-3697.18017578125
0.1855	-0.0	-0.0	-0.0	7.87545108795166	38.32607269287109	-361.8121032714844	-3.4211816787719727	-32.86906433105469	-413.1451110839844	-0.0	-0.0	-0.0	-0.0	-0.0	-0.0	122706.0234375	-12159.982421875	-3811.6689453125
0.186	-0.0	-0.0	-0.0	7.696966171264648	38.30123519897461	-360.3014526367188	-3.991985321044922	-32.9190788269043	-412.0973815917969	-0.0	-0.0	-0.0	-0.0	-0.0	-0.0	122491.40625	-11834.041015625	-4070.611572265625
0.1865	-0.0	-0.0	-0.0	7.548035621643066	38.2764892578125	-360.20379638671875	-4.499276161193848	-32.81707763671875	-412.1954956054688	-0.0	-0.0	-0.0	-0.0	-0.0	-0.0	122438.484375	-11645.8173828125	-4164.50048828125
0.187	-0.0	-0.0	-0.0	8.157885551452637	38.20248031616211	-360.3414916992188	-4.776375770568848	-33.04315948486328	-412.0418090820313	-0.0	-0.0	-0.0	-0.0	-0.0	-0.0	121959.859375	-11386.6953125	-4284.45263671875
0.1875	-0.0	-0.0	-0.0	7.761314392089844	38.15736389160156	-358.7709045410156	-4.793834209442139	-33.424434661865234	-412.4458923339844	-0.0	-0.0	-0.0	-0.0	-0.0	-0.0	122094.734375	-11264.1953125	-4304.87451171875
0.188	-0.0	-0.0	-0.0	7.736683368682861	38.33207321166992	-359.5003356933594	-4.928677558898926	-33.68951797485352	-412.25048828125	-0.0	-0.0	-0.0	-0.0	-0.0	-0.0	122014.125	-11097.3447265625	-4394.05029296875
0.1885	-0.0	-0.0	-0.0	7.355355739593506	38.107757568359375	-360.049072265625	-5.223767757415772	-33.53763198852539	-412.6399536132813	-0.0	-0.0	-0.0	-0.0	-0.0	-0.0	121866.28125	-10778.0556640625	-4483.23779296875
0.189	-0.0	-0.0	-0.0	7.598574638366699	38.08317184448242	-358.4776611328125	-5.297975540161133	-33.547611236572266	-411.55267333984375	-0.0	-0.0	-0.0	-0.0	-0.0	-0.0	121902.84375	-10652.880859375	-4415.73095703125
0.1895	-0.0	-0.0	-0.0	7.129500389099121	38.09897613525391	-357.77130126953125	-4.992406368255615	-34.0186882019043	-412.0957336425781	-0.0	-0.0	-0.0	-0.0	-0.0	-0.0	122072.421875	-10778.27734375	-4440.35986328125
0.19	-0.0	-0.0	-0.0	7.712562561035156	38.01826095581055	-358.6378173828125	-4.952709197998047	-33.78774642944336	-413.1429443359375	-0.0	-0.0	-0.0	-0.0	-0.0	-0.0	121976.25	-10649.8251953125	-4389.12939453125
0.1905	-0.0	-0.0	-0.0	7.826197624206543	37.48337936401367	-356.2301025390625	-4.677181243896484	-33.8759765625	-413.4919128417969	-0.0	-0.0	-0.0	-0.0	-0.0	-0.0	122006.640625	-10582.490234375	-4448.25146484375
0.191	-0.0	-0.0	-0.0	7.607147693634033	37.80772399902344	-356.93798828125	-4.517753601074219	-34.36360549926758	-413.5269165039063	-0.0	-0.0	-0.0	-0.0	-0.0	-0.0	122106.2578125	-10451.396484375	-4407.38818359375
0.1915	-0.0	-0.0	-0.0	7.891323566436768	37.61302947998047	-356.4899597167969	-4.661699771881104	-33.94852066040039	-414.12835693359375	-0.0	-0.0	-0.0	-0.0	-0.0	-0.0	122322.953125	-10068.0732421875	-4491.2080078125
0.192	-0.0	-0.0	-0.0	7.75394344329834	37.5406608581543	-356.6453552246094	-4.98358678817749	-33.9651985168457	-414.6678771972656	-0.0	-0.0	-0.0	-0.0	-0.0	-0.0	122317.9140625	-9948.7705078125	-4478.03515625
0.1925	-0.0	-0.0	-0.0	7.51067590713501	37.523902893066406	-355.8708190917969	-4.86309289932251	-34.28474807739258	-415.0458984375	-0.0	-0.0	-0.0	-0.0	-0.0	-0.0	122504.1796875	-9820.076171875	-4534.55615234375
0.193	-0.0	-0.0	-0.0	7.4216108322143555	37.11249542236328	-356.5215148925781	-5.072659969329834	-34.469539642333984	-415.2364807128906	-0.0	-0.0	-0.0	-0.0	-0.0	-0.0	122448.5859375	-9646.5126953125	-4618.37744140625
0.1935	-0.0	-0.0	-0.0	7.397865295410156	37.18471145629883	-355.29901123046875	-4.847206592559815	-34.557796478271484	-413.3955078125	-0.0	-0.0	-0.0	-0.0	-0.0	-0.0	122542.0078125	-9401.6884765625	-4653.3486328125
0.194	-0.0	-0.0	-0.0	6.779998779296875	36.60873031616211	-353.46368408203125	-5.387301921844482	-34.67000198364258	-416.632568359375	-0.0	-0.0	-0.0	-0.0	-0.0	-0.0	122598.4921875	-8911.982421875	-4731.73193359375
0.1945	-0.0	-0.0	-0.0	7.07147216796875	36.56728744506836	-353.7919006347656	-5.507388114929199	-35.087615966796875	-416.5666809082031	-0.0	-0.0	-0.0	-0.0	-0.0	-0.0	122783.7734375	-9210.623046875	-4937.06005859375
0.195	-0.0	-0.0	-0.0	6.71455717086792	36.97153472900391	-352.9685363769531	-5.807041645050049	-35.182861328125	-417.075439453125	-0.0	-0.0	-0.0	-0.0	-0.0	-0.0	122848.0859375	-8777.5703125	-4885.97265625
0.1955	-0.0	-0.0	-0.0	6.405107021331787	36.05607986450195	-352.2633361816406	-5.483017444610596	-35.11127853393555	-418.1225280761719	-0.0	-0.0	-0.0	-0.0	-0.0	-0.0	122966.4765625	-8716.9755859375	-4964.4267578125
0.196	-0.0	-0.0	-0.0	6.667128562927246	35.9195556640625	-352.8267822265625	-5.530489444732666	-35.25348663330078	-418.7265930175781	-0.0	-0.0	-0.0	-0.0	-0.0	-0.0	123296.9765625	-8502.4609375	-4990.6845703125
0.1965	-0.0	-0.0	-0.0	6.263185977935791	35.665462493896484	-349.3152770996094	-6.097290515899658	-35.80020904541016	-418.7262878417969	-0.0	-0.0	-0.0	-0.0	-0.0	-0.0	123220.828125	-8173.3740234375	-5050.4814453125
0.197	-0.0	-0.0	-0.0	6.638769149780273	35.43180847167969	-349.2213439941406	-5.500068664550781	-36.25909423828125	-419.33111572265625	-0.0	-0.0	-0.0	-0.0	-0.0	-0.0	123528.3359375	-8299.1044921875	-5115.33642578125
0.1975	-0.0	-0.0	-0.0	6.319804668426514	35.05635452270508	-346.9900817871094	-5.4764323234558105	-36.34728240966797	-420.1924743652344	-0.0	-0.0	-0.0	-0.0	-0.0	-0.0	123340.0625	-7890.328125	-5143.05517578125
0.198	-0.0	-0.0	-0.0	6.756594181060791	34.714088439941406	-347.1584167480469	-5.434930324554443	-36.50032806396485	-420.9132690429688	-0.0	-0.0	-0.0	-0.0	-0.0	-0.0	123608.71875	-8031.41015625	-5034.24169921875
0.1985	-0.0	-0.0	-0.0	6.438086032867432	34.86490631103516	-346.3770751953125	-5.275598526000977	-36.76524353027344	-421.9603271484375	-0.0	-0.0	-0.0	-0.0	-0.0	-0.0	123756.109375	-7878.7001953125	-5135.3017578125
0.199	-0.0	-0.0	-0.0	6.489084243774414	34.439109802246094	-343.0299072265625	-5.494971752166748	-37.45347213745117	-423.6854553222656	-0.0	-0.0	-0.0	-0.0	-0.0	-0.0	124090.5234375	-7832.1728515625	-5036.18994140625
0.1995	-0.0	-0.0	-0.0	6.706567764282227	33.84634017944336	-342.3233642578125	-5.341146945953369	-37.736663818359375	-424.6797790527344	-0.0	-0.0	-0.0	-0.0	-0.0	-0.0	124520.4375	-7517.1748046875	-5026.6064453125
0.2	-0.0	-0.0	-0.0	5.930756568908691	33.75727081298828	-340.5434265136719	-5.037834167480469	-37.93648910522461	-426.4612121582031	-0.0	-0.0	-0.0	-0.0	-0.0	-0.0	124942.765625	-7337.68359375	-5093.57568359375
0.2005	-0.0	-0.0	-0.0	6.135617733001709	33.61886215209961	-338.7910461425781	-4.967803955078125	-38.15496826171875	-426.2225341796875	-0.0	-0.0	-0.0	-0.0	-0.0	-0.0	124926.7109375	-7220.537109375	-5071.67431640625
0.201	-0.0	-0.0	-0.0	6.26478910446167	33.38083267211914	-336.6717529296875	-4.870735168457031	-38.46617889404297	-427.6357727050781	-0.0	-0.0	-0.0	-0.0	-0.0	-0.0	125285.9609375	-7214.779296875	-5145.11328125
0.2015	-0.0	-0.0	-0.0	5.798683166503906	33.13083267211914	-335.26953125	-4.967803955078125	-38.81155776977539	-428.86468505859375	-0.0	-0.0	-0.0	-0.0	-0.0	-0.0	125443.984375	-6984.54150390625	-5146.5751953125
0.202	-0.0	-0.0	-0.0	5.441841125488281	32.978248596191406	-333.58331298828125	-4.856003284454346	-38.88090133666992	-429.8199768066406	-0.0	-0.0	-0.0	-0.0	-0.0	-0.0	125643.640625	-6689.7724609375	-5240.701171875
0.2025	-0.0	-0.0	-0.0	5.6385908126831055	32.60115051269531	-333.40185546875	-5.233936309814453	-39.36509323120117	-429.6242980957031	-0.0	-0.0	-0.0	-0.0	-0.0	-0.0	125621.4140625	-6564.12548828125	-5367.5029296875
0.203	-0.0	-0.0	-0.0	5.197007179260254	32.73561477661133	-331.7340393066406	-5.523037433624268	-39.460079193115234	-430.50396728515625	-0.0	-0.0	-0.0	-0.0	-0.0	-0.0	126038.0703125	-6278.1640625	-5508.42041015625
0.20350000000000001	-0.0	-0.0	-0.0	4.952075958251953	32.684566497802734	-330.5693664550781	-5.571802616119385	-39.94422149658203	-432.33990478515625	-0.0	-0.0	-0.0	-0.0	-0.0	-0.0	126166.359375	-6304.41748046875	-5606.2763671875
0.20400000000000001	-0.0	-0.0	-0.0	4.930809020996094	32.53260040283203	-330.5703430175781	-5.969213962554932	-39.81576156616211	-431.302978515625	-0.0	-0.0	-0.0	-0.0	-0.0	-0.0	126009.46875	-6197.27001953125	-5717.4990234375
0.20450000000000002	-0.0	-0.0	-0.0	4.748270034790039	32.5991325378418	-328.5369567871094	-6.34404182434082	-40.07778930664063	-433.4573364257813	-0.0	-0.0	-0.0	-0.0	-0.0	-0.0	126387.734375	-5954.92138671875	-5836.46337890625
0.20500000000000002	-0.0	-0.0	-0.0	4.505659103393555	32.59918212890625	-327.9255065917969	-6.478134632110596	-40.51701736450195	-432.4198913574219	-0.0	-0.0	-0.0	-0.0	-0.0	-0.0	126116.8203125	-5759.8291015625	-5984.974609375
0.20550000000000002	-0.0	-0.0	-0.0	4.61644983291626	32.354339599609375	-326.2522888183594	-6.89677095413208	-40.31983184814453	-432.9402770996094	-0.0	-0.0	-0.0	-0.0	-0.0	-0.0	126319.5859375	-5623.240234375	-6089.3525390625
0.20600000000000002	-0.0	-0.0	-0.0	4.304015636444092	32.243316650390625	-325.0122985839844	-7.140360355377197	-39.87638854980469	-432.3386840820313	-0.0	-0.0	-0.0	-0.0	-0.0	-0.0	126064.21875	-5418.998046875	-6148.10302734375
0.20650000000000002	-0.0	-0.0	-0.0	4.4598708152771	32.35466384887695	-324.48504638671875	-7.030710220336914	-39.85402297973633	-433.9894714355469	-0.0	-0.0	-0.0	-0.0	-0.0	-0.0	125881.6796875	-5324.7265625	-6245.08056640625
0.20700000000000002	-0.0	-0.0	-0.0	4.43821382522583	32.22062301635742	-322.6300964355469	-7.361762523651123	-39.19244384765625	-430.6809692382813	-0.0	-0.0	-0.0	-0.0	-0.0	-0.0	125429.96875	-5066.99560546875	-6304.37890625
0.20750000000000002	-0.0	-0.0	-0.0	4.237419605255127	31.93076705932617	-322.1876220703125	-7.075463771820068	-38.99454498291016	-430.6764831542969	-0.0	-0.0	-0.0	-0.0	-0.0	-0.0	125073.8515625	-4819.28515625	-6407.01611328125
0.20800000000000002	-0.0	-0.0	-0.0	4.683752536773682	31.44124984741211	-322.4564819335937	-7.140819549560547	-38.75014877319336	-428.67327880859375	-0.0	-0.0	-0.0	-0.0	-0.0	-0.0	124563.2734375	-4677.7158203125	-6325.87890625
0.2085	-0.0	-0.0	-0.0	4.840189933776856	31.396703720092773	-320.24932861328125	-7.16326904296875	-38.08834838867188	-424.3089904785156	-0.0	-0.0	-0.0	-0.0	-0.0	-0.0	123846.640625	-4302.2080078125	-6370.33203125
